GIL06_free2_ik
nRows=3
nColumns=375

# SIMM Motion File Header:
name GIL06_free2_ik
datacolumns 375
datarows 3
otherdata 1
range 0.90000000 0.91667000
endheader
time	pelvis_tx	pelvis_ty	pelvis_tz	pelvis_tilt	pelvis_list	pelvis_rotation	hip_flexion_r	hip_adduction_r	hip_rotation_r	knee_angle_r	ankle_angle_r	hip_flexion_l	hip_adduction_l	hip_rotation_l	knee_angle_l	ankle_angle_l	lumbar_extension	lumbar_bending	lumbar_rotation	subtalar_angle_r	mtp_angle_r	subtalar_angle_l	mtp_angle_l	asis_r_px	asis_r_py	asis_r_pz	asis_l_px	asis_l_py	asis_l_pz	midasis_px	midasis_py	midasis_pz	psis_r_px	psis_r_py	psis_r_pz	psis_l_px	psis_l_py	psis_l_pz	hip_r_px	hip_r_py	hip_r_pz	hip_l_px	hip_l_py	hip_l_pz	midhip_px	midhip_py	midhip_pz	epicondLat_r_px	epicondLat_r_py	epicondLat_r_pz	epicondMed_r_px	epicondMed_r_py	epicondMed_r_pz	thighwand_r_px	thighwand_r_py	thighwand_r_pz	upperleg1_r_px	upperleg1_r_py	upperleg1_r_pz	upperleg2_r_px	upperleg2_r_py	upperleg2_r_pz	malleolusLat_r_px	malleolusLat_r_py	malleolusLat_r_pz	malleolusMedv_r_px	malleolusMedv_r_py	malleolusMedv_r_pz	shankwand_r_px	shankwand_r_py	shankwand_r_pz	lowerleg1_r_px	lowerleg1_r_py	lowerleg1_r_pz	knee_r_px	knee_r_py	knee_r_pz	ankle_r_px	ankle_r_py	ankle_r_pz	toe_r_px	toe_r_py	toe_r_pz	epicondLat_l_px	epicondLat_l_py	epicondLat_l_pz	epicondMed_l_px	epicondMed_l_py	epicondMed_l_pz	thighwand_l_px	thighwand_l_py	thighwand_l_pz	upperleg1_l_px	upperleg1_l_py	upperleg1_l_pz	upperleg2_l_px	upperleg2_l_py	upperleg2_l_pz	malleolusLat_l_px	malleolusLat_l_py	malleolusLat_l_pz	malleolusMedv_l_px	malleolusMedv_l_py	malleolusMedv_l_pz	shankwand_l_px	shankwand_l_py	shankwand_l_pz	lowerleg1_l_px	lowerleg1_l_py	lowerleg1_l_pz	knee_l_px	knee_l_py	knee_l_pz	ankle_l_px	ankle_l_py	ankle_l_pz	toe_l_px	toe_l_py	toe_l_pz	subclavicle_r_px	subclavicle_r_py	subclavicle_r_pz	subclavicle_l_px	subclavicle_l_py	subclavicle_l_pz	neck_px	neck_py	neck_pz	sternalnotch_px	sternalnotch_py	sternalnotch_pz	xyphoidprocess_px	xyphoidprocess_py	xyphoidprocess_pz	midhip_tx	midhip_ty	midhip_tz	hip_r_tx	hip_r_ty	hip_r_tz	hip_l_tx	hip_l_ty	hip_l_tz	knee_r_tx	knee_r_ty	knee_r_tz	knee_l_tx	knee_l_ty	knee_l_tz	ankle_r_tx	ankle_r_ty	ankle_r_tz	ankle_l_tx	ankle_l_ty	ankle_l_tz	midasis_tx	midasis_ty	midasis_tz	asis_r_tx	asis_r_ty	asis_r_tz	asis_l_tx	asis_l_ty	asis_l_tz	psis_r_tx	psis_r_ty	psis_r_tz	psis_l_tx	psis_l_ty	psis_l_tz	epicondLat_r_tx	epicondLat_r_ty	epicondLat_r_tz	epicondLat_l_tx	epicondLat_l_ty	epicondLat_l_tz	epicondMed_r_tx	epicondMed_r_ty	epicondMed_r_tz	epicondMed_l_tx	epicondMed_l_ty	epicondMed_l_tz	malleolusLat_r_tx	malleolusLat_r_ty	malleolusLat_r_tz	malleolusLat_l_tx	malleolusLat_l_ty	malleolusLat_l_tz	malleolusMedv_r_tx	malleolusMedv_r_ty	malleolusMedv_r_tz	malleolusMedv_l_tx	malleolusMedv_l_ty	malleolusMedv_l_tz	neck_tx	neck_ty	neck_tz	subclavicle_r_tx	subclavicle_r_ty	subclavicle_r_tz	subclavicle_l_tx	subclavicle_l_ty	subclavicle_l_tz	sternalnotch_tx	sternalnotch_ty	sternalnotch_tz	xyphoidprocess_tx	xyphoidprocess_ty	xyphoidprocess_tz	thighwand_r_tx	thighwand_r_ty	thighwand_r_tz	thighwand_l_tx	thighwand_l_ty	thighwand_l_tz	upperleg1_r_tx	upperleg1_r_ty	upperleg1_r_tz	upperleg1_l_tx	upperleg1_l_ty	upperleg1_l_tz	upperleg2_r_tx	upperleg2_r_ty	upperleg2_r_tz	upperleg2_l_tx	upperleg2_l_ty	upperleg2_l_tz	shankwand_r_tx	shankwand_r_ty	shankwand_r_tz	shankwand_l_tx	shankwand_l_ty	shankwand_l_tz	lowerleg1_r_tx	lowerleg1_r_ty	lowerleg1_r_tz	lowerleg1_l_tx	lowerleg1_l_ty	lowerleg1_l_tz	toe_r_tx	toe_r_ty	toe_r_tz	toe_l_tx	toe_l_ty	toe_l_tz	ground_force_vx	ground_force_vy	ground_force_vz	ground_force_px	ground_force_py	ground_force_pz	ground_force_vx	ground_force_vy	ground_force_vz	ground_force_px	ground_force_py	ground_force_pz	ground_torque_x	ground_torque_y	ground_torque_z	ground_torque_x	ground_torque_y	ground_torque_z	ground_marker_px	ground_marker_py	ground_marker_pz	ground_marker_px	ground_marker_py	ground_marker_pz	ground_marker_px	ground_marker_py	ground_marker_pz	ground_marker_px	ground_marker_py	ground_marker_pz	ground_marker_px	ground_marker_py	ground_marker_pz	ground_marker_px	ground_marker_py	ground_marker_pz	ground_marker_px	ground_marker_py	ground_marker_pz	ground_marker_px	ground_marker_py	ground_marker_pz	ground_marker_px	ground_marker_py	ground_marker_pz	ground_marker_px	ground_marker_py	ground_marker_pz	ground_marker_px	ground_marker_py	ground_marker_pz	ground_marker_px	ground_marker_py	ground_marker_pz	ground_marker_px	ground_marker_py	ground_marker_pz	ground_marker_px	ground_marker_py	ground_marker_pz	ground_marker_px	ground_marker_py	ground_marker_pz	ground_marker_px	ground_marker_py	ground_marker_pz	ground_marker_px	ground_marker_py	ground_marker_pz	ground_marker_px	ground_marker_py	ground_marker_pz	ground_marker_px	ground_marker_py	ground_marker_pz	ground_marker_px	ground_marker_py	ground_marker_pz	ground_marker_px	ground_marker_py	ground_marker_pz	ground_marker_px	ground_marker_py	ground_marker_pz	ground_marker_px	ground_marker_py	ground_marker_pz	ground_marker_px	ground_marker_py	ground_marker_pz	ground_marker_px	ground_marker_py	ground_marker_pz	ground_marker_px	ground_marker_py	ground_marker_pz	ground_marker_px	ground_marker_py	ground_marker_pz	ground_marker_px	ground_marker_py	ground_marker_pz	ground_marker_px	ground_marker_py	ground_marker_pz	ground_marker_px	ground_marker_py	ground_marker_pz	ground_marker_px	ground_marker_py	ground_marker_pz	ground_marker_px	ground_marker_py	ground_marker_pz	ground_marker_px	ground_marker_py	ground_marker_pz	ground_marker_px	ground_marker_py	ground_marker_pz	ground_marker_px	ground_marker_py	ground_marker_pz	ground_marker_px	ground_marker_py	ground_marker_pz	ground_marker_px	ground_marker_py	ground_marker_pz
      0.90000000	      0.96109326	      0.84418081	     -0.22039276	     -3.13829129	     -1.56905157	     -2.27997645	      2.00714751	      5.93700000	      1.80122428	     -9.76406379	      5.71722731	     28.70258238	     -5.23168945	      0.42383983	    -49.77857628	      5.47118086	      5.75307183	     -2.31257713	     15.46725898	      0.00000000	      0.00000000	      0.00000000	      0.00000000	      1.01308512	      0.83316161	     -0.10091748	      1.02109221	      0.82512193	     -0.34657621	      0.97451231	      0.84345974	     -0.21985792	      0.78146978	      0.92987196	     -0.20089441	      0.77895051	      0.92662858	     -0.25598553	      0.88678587	      0.78680857	     -0.14123458	      0.89291824	      0.78207644	     -0.30147539	      0.88985205	      0.78444251	     -0.22135498	      0.88105288	      0.39947738	     -0.11063186	      0.86296212	      0.41977324	     -0.25318079	      1.04138763	      0.55132374	     -0.09978440	      1.00313988	      0.57578378	     -0.11775488	      0.97496255	      0.50438886	     -0.13074024	      0.79787529	      0.05055393	     -0.14991688	      0.81605609	      0.06013710	     -0.22385402	      0.91534082	      0.18034327	     -0.15817070	      0.87174020	      0.19523711	     -0.17068003	      0.87811693	      0.42078840	     -0.16868547	      0.80996295	      0.05984746	     -0.19627186	      0.91562240	      0.02522825	     -0.17565078	      1.05125068	      0.44450272	     -0.38683206	      1.05908452	      0.42496520	     -0.23971567	      1.13776290	      0.68029073	     -0.32408202	      1.08822772	      0.67423963	     -0.32952630	      1.10339780	      0.60193577	     -0.33021772	      0.88105056	      0.11247754	     -0.38076034	      0.90572588	      0.11526829	     -0.30475785	      0.91161380	      0.22458385	     -0.43889232	      0.92163155	      0.23012419	     -0.39136024	      1.05712237	      0.44757480	     -0.31934628	      0.90655199	      0.11197509	     -0.33898652	      0.99074671	      0.06119035	     -0.36498789	      0.91851550	      1.28642913	     -0.21372952	      0.90813753	      1.28431526	     -0.29497259	      0.77375338	      1.32482864	     -0.23535454	      0.89658486	      1.27630372	     -0.26425363	      0.96226777	      1.21490301	     -0.26983893	      0.88569800	      0.77747400	     -0.23332800	      0.86320400	      0.78203600	     -0.15533900	      0.86901000	      0.77941600	     -0.31083800	      0.86340400	      0.41785800	     -0.18590400	      1.04283300	      0.43108200	     -0.34168800	      0.80326300	      0.06233400	     -0.19894600	      0.90233400	      0.10139300	     -0.30502700	      0.99169900	      0.85654300	     -0.22967700	      0.98713500	      0.85860300	     -0.10745700	      0.99626200	      0.85448300	     -0.35189700	      0.74646800	      0.92176900	     -0.21001700	      0.74638500	      0.91843200	     -0.26426000	      0.86298700	      0.41187800	     -0.11465600	      1.04306700	      0.43750500	     -0.41289800	      0.85373700	      0.42904100	     -0.25512100	      1.05920800	      0.41496400	     -0.25870000	      0.80033000	      0.06142200	     -0.16056900	      0.88544300	      0.10463700	     -0.34058600	      0.80401500	      0.07247900	     -0.23536600	      0.90714000	      0.12138400	     -0.26546400	      0.78238700	      1.34712600	     -0.23985600	      0.91216100	      1.28268400	     -0.20931400	      0.90741200	      1.28622200	     -0.29153800	      0.89227500	      1.27908900	     -0.26146800	      0.94575100	      1.20674300	     -0.26684200	      1.01924300	      0.56094500	     -0.09131200	      1.12660300	      0.67843900	     -0.32331000	      0.98349900	      0.58704500	     -0.11232700	      1.07921500	      0.66997700	     -0.33342800	      0.95593400	      0.51621000	     -0.12568200	      1.09920900	      0.59908200	     -0.33618300	      0.91229000	      0.18953000	     -0.18078400	      0.91902800	      0.19807700	     -0.41887300	      0.86496300	      0.20304400	     -0.18456300	      0.92794200	      0.21328900	     -0.37379700	      0.91290600	      0.04342800	     -0.19764700	      0.99060600	      0.06314900	     -0.32577500	    -15.90757558	    701.57755049	    -26.11295149	      0.88926910	      0.00000000	     -0.19924933	      0.00000000	      0.00000000	      0.00000000	      0.41071719	      0.00000000	     -0.28555157	      0.00000000	      3.61727393	      0.00000000	      0.00000000	      0.00000000	      0.00000000	      0.88569808	      0.77747357	     -0.23332822	      0.86320359	      0.78203648	     -0.15533915	      0.86900973	      0.77941561	     -0.31083786	      0.86340374	      0.41785762	     -0.18590406	      1.04283345	      0.43108201	     -0.34168789	      0.80326319	      0.06233408	     -0.19894645	      0.90233356	      0.10139330	     -0.30502677	      0.99169850	      0.85654306	     -0.22967696	      0.98713499	      0.85860306	     -0.10745692	      0.99626207	      0.85448307	     -0.35189700	      0.74646831	      0.92176926	     -0.21001685	      0.74638474	      0.91843212	     -0.26425970	      0.86298740	      0.41187763	     -0.11465579	      1.04306686	      0.43750522	     -0.41289845	      0.85373741	      0.42904103	     -0.25512087	      1.05920792	      0.41496444	     -0.25869977	      0.80032957	      0.06142246	     -0.16056918	      0.88544309	      0.10463720	     -0.34058568	      0.80401480	      0.07247882	     -0.23536603	      0.90714002	      0.12138383	     -0.26546422	      0.78238744	      1.34712601	     -0.23985593	      0.91216105	      1.28268421	     -0.20931353	      0.90741211	      1.28622246	     -0.29153836	      0.89227521	      1.27908874	     -0.26146770	      0.94575149	      1.20674288	     -0.26684245	      1.01924264	      0.56094509	     -0.09131205	      1.12660301	      0.67843896	     -0.32330972	      0.98349869	      0.58704478	     -0.11232714	      1.07921481	      0.66997659	     -0.33342755	      0.95593399	      0.51620954	     -0.12568235	      1.09920919	      0.59908187	     -0.33618295	      0.91228950	      0.18953043	     -0.18078426	      0.91902834	      0.19807722	     -0.41887262	      0.86496335	      0.20304364	     -0.18456295	      0.92794222	      0.21328901	     -0.37379697	      0.91290551	      0.04342841	     -0.19764683	      0.99060631	      0.06314935	     -0.32577479
      0.90833000	      0.96922196	      0.84367744	     -0.21977000	     -3.17294909	     -1.29057838	     -2.60100041	      1.26111620	      5.72103913	      2.23997200	     -9.42729065	      5.92559884	     29.16734905	     -4.90093813	      0.19275911	    -47.19551819	      5.73384365	      5.72734141	     -2.60430179	     15.78886926	      0.00000000	      0.00000000	      0.00000000	      0.00000000	      1.02050767	      0.83209069	     -0.10004347	      1.02995086	      0.82516332	     -0.34568508	      0.98263732	      0.84294752	     -0.21915983	      0.78952602	      0.92936504	     -0.20093509	      0.78732822	      0.92637318	     -0.25605419	      0.89442597	      0.78598172	     -0.14131018	      0.90149531	      0.78197470	     -0.30153217	      0.89796064	      0.78397821	     -0.22142117	      0.88368458	      0.39871296	     -0.11127046	      0.86564567	      0.41945634	     -0.25376153	      1.04600354	      0.54843788	     -0.10044339	      1.00805126	      0.57342176	     -0.11831940	      0.97892505	      0.50242010	     -0.13136714	      0.79800213	      0.05050093	     -0.15096173	      0.81617242	      0.06005966	     -0.22490461	      0.91638890	      0.17945429	     -0.15915618	      0.87288316	      0.19467917	     -0.17159716	      0.88088352	      0.42017569	     -0.16928631	      0.81010680	      0.05977409	     -0.19731634	      0.91564325	      0.02474707	     -0.17675418	      1.06279834	      0.44539594	     -0.38524005	      1.07011367	      0.42632028	     -0.23803638	      1.14721362	      0.68201181	     -0.32275079	      1.09775155	      0.67556551	     -0.32840218	      1.11347875	      0.60337871	     -0.32882542	      0.91012226	      0.10499453	     -0.37925700	      0.93407832	      0.10930115	     -0.30309535	      0.93515043	      0.21838649	     -0.43754183	      0.94452618	      0.22458436	     -0.38995999	      1.06786648	      0.44907776	     -0.31772133	      0.93531872	      0.10595701	     -0.33730657	      1.02245270	      0.06001373	     -0.36262054	      0.92725767	      1.28592988	     -0.21351586	      0.91691822	      1.28376987	     -0.29476263	      0.78256523	      1.32453288	     -0.23524461	      0.90533761	      1.27579931	     -0.26404353	      0.97092996	      1.21429460	     -0.26954828	      0.89373400	      0.77683500	     -0.23335100	      0.87077400	      0.78116700	     -0.15552500	      0.87750700	      0.77908300	     -0.31099500	      0.86621800	      0.41736400	     -0.18636400	      1.05419500	      0.43223900	     -0.33956500	      0.80358800	      0.06259300	     -0.19926100	      0.93097200	      0.09542700	     -0.30442100	      0.99973600	      0.85588400	     -0.22883600	      0.99443700	      0.85752400	     -0.10649700	      1.00503500	      0.85424400	     -0.35117500	      0.75450800	      0.92114500	     -0.21093900	      0.75475300	      0.91791600	     -0.26511800	      0.86582600	      0.41132900	     -0.11512000	      1.05468700	      0.43835700	     -0.41080100	      0.85605200	      0.43047400	     -0.25707500	      1.06977900	      0.41613000	     -0.25702400	      0.80062200	      0.06172200	     -0.16088500	      0.91361200	      0.09808600	     -0.33980200	      0.80510000	      0.07152600	     -0.23569800	      0.93431600	      0.11561500	     -0.26465500	      0.79142100	      1.34679000	     -0.23972800	      0.92107200	      1.28250100	     -0.20907400	      0.91591700	      1.28566500	     -0.29125600	      0.90095700	      1.27857300	     -0.26145600	      0.95432100	      1.20627100	     -0.26640500	      1.02397800	      0.55909000	     -0.09185000	      1.13556500	      0.67995800	     -0.32192400	      0.98873200	      0.58563900	     -0.11334900	      1.08843900	      0.67106500	     -0.33252300	      0.95934000	      0.51487000	     -0.12702400	      1.10906800	      0.60022800	     -0.33480900	      0.91351500	      0.18877300	     -0.18108900	      0.94168400	      0.19377800	     -0.41762300	      0.86557600	      0.20206600	     -0.18555800	      0.94973200	      0.20952600	     -0.37233400	      0.91296100	      0.04332900	     -0.19774600	      1.02109100	      0.06231800	     -0.32596500	    -13.00775149	    705.99714416	    -26.20148077	      0.89260242	      0.00000000	     -0.19990216	      0.00000000	      0.00000000	      0.00000000	      0.41399194	      0.00000000	     -0.28459409	      0.00000000	      4.04995972	      0.00000000	      0.00000000	      0.00000000	      0.00000000	      0.89373416	      0.77683496	     -0.23335052	      0.87077385	      0.78116727	     -0.15552543	      0.87750739	      0.77908313	     -0.31099483	      0.86621755	      0.41736352	     -0.18636361	      1.05419540	      0.43223897	     -0.33956528	      0.80358773	      0.06259335	     -0.19926058	      0.93097228	      0.09542662	     -0.30442104	      0.99973601	      0.85588413	     -0.22883609	      0.99443734	      0.85752422	     -0.10649669	      1.00503469	      0.85424405	     -0.35117549	      0.75450814	      0.92114532	     -0.21093896	      0.75475305	      0.91791612	     -0.26511830	      0.86582637	      0.41132939	     -0.11511975	      1.05468690	      0.43835723	     -0.41080132	      0.85605204	      0.43047437	     -0.25707516	      1.06977940	      0.41612992	     -0.25702420	      0.80062181	      0.06172185	     -0.16088487	      0.91361213	      0.09808611	     -0.33980182	      0.80510032	      0.07152611	     -0.23569779	      0.93431628	      0.11561451	     -0.26465517	      0.79142070	      1.34679019	     -0.23972815	      0.92107242	      1.28250051	     -0.20907389	      0.91591656	      1.28566480	     -0.29125634	      0.90095729	      1.27857280	     -0.26145622	      0.95432055	      1.20627129	     -0.26640543	      1.02397788	      0.55909014	     -0.09185006	      1.13556468	      0.67995763	     -0.32192433	      0.98873246	      0.58563858	     -0.11334867	      1.08843935	      0.67106473	     -0.33252290	      0.95934045	      0.51487005	     -0.12702422	      1.10906768	      0.60022825	     -0.33480886	      0.91351533	      0.18877277	     -0.18108898	      0.94168389	      0.19377799	     -0.41762272	      0.86557609	      0.20206583	     -0.18555789	      0.94973177	      0.20952582	     -0.37233394	      0.91296118	      0.04332944	     -0.19774623	      1.02109134	      0.06231764	     -0.32596499
      0.91667000	      0.97731075	      0.84304019	     -0.21932551	     -3.23676414	     -0.98582083	     -2.96679166	      0.59639555	      5.46175655	      2.74905926	     -9.17605677	      6.14883927	     29.57031575	     -4.55235139	     -0.05973107	    -44.46755633	      5.83939779	      5.75801380	     -2.89328219	     15.86799666	      0.00000000	      0.00000000	      0.00000000	      0.00000000	      1.02778515	      0.83080942	     -0.09931858	      1.03886050	      0.82508871	     -0.34492309	      0.99072103	      0.84229380	     -0.21862953	      0.79757637	      0.92881377	     -0.20126468	      0.79574351	      0.92609703	     -0.25641136	      0.90193693	      0.78503185	     -0.14165313	      0.91007134	      0.78181096	     -0.30184231	      0.90600414	      0.78342141	     -0.22174772	      0.88656936	      0.39788251	     -0.11208830	      0.86848532	      0.41902938	     -0.25451432	      1.05071182	      0.54561693	     -0.10141062	      1.01302761	      0.57108187	     -0.11917460	      0.98301653	      0.50045519	     -0.13225219	      0.79815922	      0.05042954	     -0.15206298	      0.81627302	      0.05994138	     -0.22602576	      0.91752570	      0.17847355	     -0.16030439	      0.87411728	      0.19405031	     -0.17264935	      0.88386633	      0.41947508	     -0.17006912	      0.81025385	      0.05966768	     -0.19842721	      0.91566813	      0.02420629	     -0.17798329	      1.07383338	      0.44598003	     -0.38376003	      1.08048878	      0.42735656	     -0.23646717	      1.15649450	      0.68327256	     -0.32149201	      1.10710249	      0.67651262	     -0.32738462	      1.12326547	      0.60442104	     -0.32752317	      0.93939890	      0.09802254	     -0.37772693	      0.96249444	      0.10384551	     -0.30140049	      0.95877637	      0.21240809	     -0.43622244	      0.96743497	      0.21924886	     -0.38859281	      1.07801433	      0.45025138	     -0.31621476	      0.96417926	      0.10046494	     -0.33558912	      1.05391369	      0.05934364	     -0.36009797	      0.93568366	      1.28537699	     -0.21305332	      0.92579038	      1.28321174	     -0.29435549	      0.79114356	      1.32409009	     -0.23558526	      0.91403441	      1.27525533	     -0.26369940	      0.97960769	      1.21369820	     -0.26883275	      0.90170600	      0.77605500	     -0.23365500	      0.87822300	      0.78020600	     -0.15595100	      0.88602100	      0.77867500	     -0.31137700	      0.86924300	      0.41683000	     -0.18689600	      1.06496800	      0.43307700	     -0.33735900	      0.80392600	      0.06286600	     -0.19957600	      0.95968600	      0.09000200	     -0.30396700	      1.00775100	      0.85506900	     -0.22810600	      1.00160000	      0.85627700	     -0.10552600	      1.01390100	      0.85386100	     -0.35068600	      0.76257900	      0.92052900	     -0.21194700	      0.76319500	      0.91735200	     -0.26609600	      0.86891400	      0.41077200	     -0.11565400	      1.06578700	      0.43885800	     -0.40862100	      0.85751900	      0.43357400	     -0.25974500	      1.07966300	      0.41692300	     -0.25588000	      0.80093400	      0.06204300	     -0.16120100	      0.94186600	      0.09204600	     -0.33915900	      0.80606100	      0.07101000	     -0.23605100	      0.96310500	      0.10950300	     -0.26422300	      0.80013800	      1.34657100	     -0.23996900	      0.92930700	      1.28201300	     -0.20847200	      0.92469400	      1.28499800	     -0.29097400	      0.90965800	      1.27794800	     -0.26138700	      0.96270000	      1.20554700	     -0.26553000	      1.02888700	      0.55728300	     -0.09257100	      1.14431800	      0.68099400	     -0.32051700	      0.99402300	      0.58413000	     -0.11413500	      1.09724800	      0.67183400	     -0.33193400	      0.96256000	      0.51359500	     -0.12874100	      1.11856700	      0.60104000	     -0.33366500	      0.91483700	      0.18799900	     -0.18143100	      0.96418600	      0.18971400	     -0.41642200	      0.86675700	      0.20138800	     -0.18644100	      0.97233000	      0.20530600	     -0.37089300	      0.91299400	      0.04321600	     -0.19785000	      1.05128800	      0.06196500	     -0.32628800	    -10.15714841	    711.13130625	    -26.09485283	      0.89598578	      0.00000000	     -0.20059729	      0.00000000	      0.00000000	      0.00000000	      0.41728516	      0.00000000	     -0.28369650	      0.00000000	      4.47407666	      0.00000000	      0.00000000	      0.00000000	      0.00000000	      0.90170586	      0.77605462	     -0.23365515	      0.87822264	      0.78020591	     -0.15595092	      0.88602072	      0.77867454	     -0.31137702	      0.86924255	      0.41683042	     -0.18689594	      1.06496811	      0.43307650	     -0.33735937	      0.80392599	      0.06286593	     -0.19957569	      0.95968574	      0.09000238	     -0.30396676	      1.00775051	      0.85506904	     -0.22810607	      1.00160038	      0.85627681	     -0.10552630	      1.01390052	      0.85386127	     -0.35068583	      0.76257932	      0.92052943	     -0.21194683	      0.76319480	      0.91735166	     -0.26609606	      0.86891389	      0.41077155	     -0.11565387	      1.06578708	      0.43885809	     -0.40862054	      0.85751933	      0.43357408	     -0.25974500	      1.07966316	      0.41692266	     -0.25587997	      0.80093396	      0.06204337	     -0.16120096	      0.94186586	      0.09204550	     -0.33915949	      0.80606085	      0.07100961	     -0.23605131	      0.96310502	      0.10950319	     -0.26422307	      0.80013764	      1.34657121	     -0.23996928	      0.92930651	      1.28201282	     -0.20847158	      0.92469436	      1.28499758	     -0.29097360	      0.90965837	      1.27794755	     -0.26138672	      0.96270025	      1.20554674	     -0.26552999	      1.02888691	      0.55728304	     -0.09257101	      1.14431822	      0.68099409	     -0.32051724	      0.99402332	      0.58412993	     -0.11413546	      1.09724772	      0.67183393	     -0.33193412	      0.96255976	      0.51359534	     -0.12874147	      1.11856723	      0.60104048	     -0.33366492	      0.91483748	      0.18799871	     -0.18143120	      0.96418607	      0.18971370	     -0.41642180	      0.86675686	      0.20138778	     -0.18644083	      0.97232980	      0.20530595	     -0.37089300	      0.91299373	      0.04321622	     -0.19785014	      1.05128753	      0.06196510	     -0.32628757
